<?xml version="1.0" encoding="UTF-8" standalone="no"?><!DOCTYPE svg PUBLIC "-//W3C//DTD SVG 1.1//EN" "http://www.w3.org/Graphics/SVG/1.1/DTD/svg11.dtd"><svg width="100%" height="100%" viewBox="0 0 347 425" version="1.1" xmlns="http://www.w3.org/2000/svg" xmlns:xlink="http://www.w3.org/1999/xlink" xml:space="preserve" xmlns:serif="http://www.serif.com/" style="fill-rule:evenodd;clip-rule:evenodd;stroke-linecap:round;stroke-linejoin:round;stroke-miterlimit:1.5;"><g><path d="M346.164,13.028l0,398.562c0,7.19 -5.838,13.028 -13.028,13.028l-320.108,0c-7.19,0 -13.028,-5.838 -13.028,-13.028l0,-398.562c0,-7.19 5.838,-13.028 13.028,-13.028l320.108,0c7.19,0 13.028,5.838 13.028,13.028Z" style="fill:#ffc900;"/><path d="M328.465,24.531l0,375.556c0,4.046 -3.285,7.331 -7.331,7.331l-296.103,0c-4.046,0 -7.331,-3.285 -7.331,-7.331l0,-375.556c0,-4.046 3.285,-7.331 7.331,-7.331l296.103,0c4.046,0 7.331,3.285 7.331,7.331Z" style="fill:#fff7d8;"/><rect x="0" y="311.664" width="346.164" height="77.159" style="fill:#ff5fd8;"/><g><rect x="29.726" y="48.718" width="286.712" height="327.182" style="fill:#fff;fill-opacity:0;"/><g><path d="M85.117,311.628c2.059,-67.022 41.034,-120.538 88.743,-120.538c47.709,0 86.684,53.517 88.743,120.538l-177.487,0Z" style="fill:#b28360;stroke:#000;stroke-width:2.08px;"/><path d="M104.378,238.664c16.281,-28.986 41.365,-47.574 69.482,-47.574c28.117,0 53.201,18.588 69.482,47.574c-18.085,11.439 -42.557,17.677 -69.482,17.677c-26.925,0 -51.398,-6.238 -69.482,-17.677Z" style="fill-opacity:0.15;"/><path d="M173.861,244.593c-55.617,0 -100.772,-26.617 -100.772,-70.707c0,-16.933 4.185,-31.81 11.577,-44.314c-0.699,-10.306 -6.036,-54.011 11.846,-75.043c12.967,-15.251 45.876,27.579 49.737,33.21c8.776,-1.924 18.039,-2.915 27.611,-2.915c9.573,0 18.835,0.991 27.611,2.915c3.862,-5.632 36.77,-48.462 49.737,-33.21c17.882,21.032 12.545,64.737 11.846,75.043c7.392,12.504 11.577,27.382 11.577,44.314c-0,44.089 -45.154,70.707 -100.772,70.707Z" style="fill:#b28360;stroke:#000;stroke-width:2.08px;"/><g><path d="M173.861,186.187c0,8.798 -3.814,14.16 -9.114,15.825c0,0 -8.733,2.911 -13.7,-4.706" style="fill:none;stroke:#000;stroke-width:2.08px;"/><path d="M173.861,186.187c0,8.798 3.814,14.16 9.114,15.825c0,0 8.733,2.911 13.7,-4.706" style="fill:none;stroke:#000;stroke-width:2.08px;"/></g><path d="M173.861,190.673c-0.684,-0.004 -1.33,-0.321 -1.75,-0.861l-8.875,-11.395c-0.378,-0.486 -0.447,-1.145 -0.177,-1.698c0.27,-0.553 0.832,-0.904 1.448,-0.904l18.708,0c0.616,-0 1.178,0.351 1.448,0.904c0.27,0.553 0.202,1.212 -0.177,1.698l-8.875,11.395c-0.421,0.54 -1.066,0.857 -1.75,0.861Z"/><ellipse cx="133.637" cy="161.872" rx="9.372" ry="13.943"/><ellipse cx="214.084" cy="161.872" rx="9.372" ry="13.943"/><path d="M96.599,114.09c-1.296,-23.363 3.206,-42.999 8.721,-44.232c10.149,-2.269 27.977,19.986 25.145,21.234c-4.994,2.201 -18.035,6.863 -33.749,22.989" style="fill:#8b6243;"/><path d="M251.027,114.09c1.296,-23.363 -3.206,-42.999 -8.721,-44.232c-10.149,-2.269 -28.021,20.091 -25.145,21.234c3.68,1.462 18.035,6.863 33.749,22.989" style="fill:#8b6243;"/><g><g><path d="M98.96,188.694c-21.145,0 -51.387,5.462 -63.907,15.446" style="fill:none;stroke:#000;stroke-width:2.08px;"/><path d="M98.96,181.877c-20.893,-3.255 -51.616,-2.512 -65.523,5.426" style="fill:none;stroke:#000;stroke-width:2.08px;"/><path d="M98.96,195.289c-20.762,4.004 -49.423,15.095 -59.825,27.269" style="fill:none;stroke:#000;stroke-width:2.08px;"/></g><g><path d="M248.761,188.694c21.145,0 51.387,5.462 63.907,15.446" style="fill:none;stroke:#000;stroke-width:2.08px;"/><path d="M248.761,181.877c20.893,-3.255 51.616,-2.512 65.523,5.426" style="fill:none;stroke:#000;stroke-width:2.08px;"/><path d="M248.761,195.289c20.762,4.004 49.423,15.095 59.825,27.269" style="fill:none;stroke:#000;stroke-width:2.08px;"/></g></g><g><path d="M131.884,375.864c-3.753,0 -6.616,-1.069 -8.588,-3.207c-1.972,-2.138 -2.958,-5.155 -2.958,-9.051l0,-26.796c0,-3.896 0.986,-6.913 2.958,-9.051c1.972,-2.138 4.834,-3.207 8.588,-3.207c3.753,0 6.616,1.069 8.588,3.207c1.972,2.138 2.958,5.155 2.958,9.051l0,5.274l-7.412,0l0,-5.773c0,-3.088 -1.307,-4.632 -3.92,-4.632c-2.613,0 -3.92,1.544 -3.92,4.632l0,27.865c0,3.041 1.307,4.561 3.92,4.561c2.613,0 3.92,-1.52 3.92,-4.561l0,-7.626l7.412,0l0,7.055c0,3.896 -0.986,6.913 -2.958,9.051c-1.972,2.138 -4.834,3.207 -8.588,3.207Z" style="fill:#fff;fill-rule:nonzero;"/><path d="M159.607,375.864c-3.848,0 -6.794,-1.093 -8.837,-3.278c-2.043,-2.186 -3.064,-5.274 -3.064,-9.265l0,-26.226c0,-3.991 1.021,-7.079 3.064,-9.265c2.043,-2.186 4.989,-3.278 8.837,-3.278c3.848,0 6.794,1.093 8.837,3.278c2.043,2.186 3.064,5.274 3.064,9.265l0,26.226c0,3.991 -1.021,7.079 -3.064,9.265c-2.043,2.186 -4.989,3.278 -8.837,3.278Zm0,-7.127c2.708,0 4.062,-1.639 4.062,-4.917l0,-27.224c0,-3.278 -1.354,-4.917 -4.062,-4.917c-2.708,0 -4.062,1.639 -4.062,4.917l0,27.224c0,3.278 1.354,4.917 4.062,4.917Z" style="fill:#fff;fill-rule:nonzero;"/><path d="M187.829,375.864c-3.753,0 -6.616,-1.069 -8.588,-3.207c-1.972,-2.138 -2.958,-5.155 -2.958,-9.051l0,-26.796c0,-3.896 0.986,-6.913 2.958,-9.051c1.972,-2.138 4.834,-3.207 8.588,-3.207c3.753,0 6.616,1.069 8.588,3.207c1.972,2.138 2.958,5.155 2.958,9.051l0,5.274l-7.412,0l0,-5.773c0,-3.088 -1.307,-4.632 -3.92,-4.632c-2.613,0 -3.92,1.544 -3.92,4.632l0,27.865c0,3.041 1.307,4.561 3.92,4.561c2.613,0 3.92,-1.52 3.92,-4.561l0,-7.626l7.412,0l0,7.055c0,3.896 -0.986,6.913 -2.958,9.051c-1.972,2.138 -4.834,3.207 -8.588,3.207Z" style="fill:#fff;fill-rule:nonzero;"/><path d="M215.552,375.864c-3.848,0 -6.794,-1.093 -8.837,-3.278c-2.043,-2.186 -3.064,-5.274 -3.064,-9.265l0,-26.226c0,-3.991 1.021,-7.079 3.064,-9.265c2.043,-2.186 4.989,-3.278 8.837,-3.278c3.848,0 6.794,1.093 8.837,3.278c2.043,2.186 3.064,5.274 3.064,9.265l0,26.226c0,3.991 -1.021,7.079 -3.064,9.265c-2.043,2.186 -4.989,3.278 -8.837,3.278Zm0,-7.127c2.708,0 4.062,-1.639 4.062,-4.917l0,-27.224c0,-3.278 -1.354,-4.917 -4.062,-4.917c-2.708,0 -4.062,1.639 -4.062,4.917l0,27.224c0,3.278 1.354,4.917 4.062,4.917Z" style="fill:#fff;fill-rule:nonzero;"/></g></g></g><path d="M0,311.664l0,-5.195l346.164,0l0,5.195l-346.164,0Zm346.164,77.159l0,5.195l-346.164,0l0,-5.195l346.164,0Z" style="fill-opacity:0.15;"/></g></svg>