<?xml version="1.0" encoding="UTF-8" standalone="no"?><!DOCTYPE svg PUBLIC "-//W3C//DTD SVG 1.1//EN" "http://www.w3.org/Graphics/SVG/1.1/DTD/svg11.dtd"><svg width="100%" height="100%" viewBox="0 0 347 425" version="1.1" xmlns="http://www.w3.org/2000/svg" xmlns:xlink="http://www.w3.org/1999/xlink" xml:space="preserve" xmlns:serif="http://www.serif.com/" style="fill-rule:evenodd;clip-rule:evenodd;stroke-linecap:round;stroke-linejoin:round;stroke-miterlimit:1.5;"><g><path d="M346.164,13.028l0,398.562c0,7.19 -5.838,13.028 -13.028,13.028l-320.108,0c-7.19,0 -13.028,-5.838 -13.028,-13.028l0,-398.562c0,-7.19 5.838,-13.028 13.028,-13.028l320.108,0c7.19,0 13.028,5.838 13.028,13.028Z" style="fill:#ffc900;"/><path d="M328.465,24.531l0,375.556c0,4.046 -3.285,7.331 -7.331,7.331l-296.103,0c-4.046,0 -7.331,-3.285 -7.331,-7.331l0,-375.556c0,-4.046 3.285,-7.331 7.331,-7.331l296.103,0c4.046,0 7.331,3.285 7.331,7.331Z" style="fill:#fff7d8;"/><rect x="0" y="311.664" width="346.164" height="77.159" style="fill:#ff5fd8;"/><g><rect x="29.726" y="48.718" width="286.712" height="327.182" style="fill:#fff;fill-opacity:0;"/><g><path d="M85.117,311.664c2.059,-67.022 41.034,-120.538 88.743,-120.538c47.709,0 86.684,53.517 88.743,120.538l-177.487,0Z" style="fill:#b28360;stroke:#000;stroke-width:2.08px;"/><path d="M104.378,238.7c16.281,-28.986 41.365,-47.574 69.482,-47.574c28.117,0 53.201,18.588 69.482,47.574c-18.085,11.439 -42.557,17.677 -69.482,17.677c-26.925,0 -51.398,-6.238 -69.482,-17.677Z" style="fill-opacity:0.15;"/><path d="M173.861,244.629c-55.617,0 -100.772,-26.617 -100.772,-70.707c0,-16.933 4.185,-31.81 11.577,-44.314c-0.699,-10.306 -6.036,-54.011 11.846,-75.043c12.967,-15.251 45.876,27.579 49.737,33.21c8.776,-1.924 18.039,-2.915 27.611,-2.915c9.573,0 18.835,0.991 27.611,2.915c3.862,-5.632 36.77,-48.462 49.737,-33.21c17.882,21.032 12.545,64.737 11.846,75.043c7.392,12.504 11.577,27.382 11.577,44.314c-0,44.089 -45.154,70.707 -100.772,70.707Z" style="fill:#b28360;stroke:#000;stroke-width:2.08px;"/><g><g><path d="M91.899,274.58c0.965,-3.808 2.056,-7.532 3.265,-11.16c16.469,12.212 26.5,8.207 26.021,15.931c-0.393,6.332 -15.316,3.934 -29.286,-4.771Zm11.98,-31.898c19.616,15.836 31.291,9.982 31.064,18.383c-0.198,7.318 -20.135,3.694 -35.909,-7.98c1.496,-3.585 3.114,-7.057 4.846,-10.402Z" style="fill:#8b6243;"/><path d="M255.813,274.58c-0.965,-3.808 -2.056,-7.532 -3.265,-11.16c-16.469,12.212 -26.5,8.207 -26.021,15.931c0.393,6.332 15.316,3.934 29.286,-4.771Zm-11.98,-31.898c-19.616,15.836 -31.291,9.982 -31.064,18.383c0.198,7.318 20.135,3.694 35.909,-7.98c-1.496,-3.585 -3.114,-7.057 -4.846,-10.402Z" style="fill:#8b6243;"/></g><path d="M74.966,180.891c-0.256,-2.271 -0.387,-4.595 -0.387,-6.969c0,-1.65 0.04,-3.28 0.118,-4.89l19.598,0c3.152,0 5.711,2.657 5.711,5.929c0,3.272 -2.559,5.929 -5.711,5.929l-19.329,0Zm1.996,-28.254l7.627,0c3.152,0 5.711,2.657 5.711,5.929c0,3.272 -2.559,5.929 -5.711,5.929l-9.564,0c0.394,-4.09 1.045,-8.045 1.937,-11.859Zm-1.338,32.62l8.965,0c3.152,0 5.711,2.657 5.711,5.929c0,3.272 -2.559,5.929 -5.711,5.929l-5.351,0c-1.612,-3.759 -2.829,-7.715 -3.614,-11.859Z" style="fill:#8b6243;"/><path d="M272.755,180.891c0.256,-2.271 0.387,-4.595 0.387,-6.969c0,-1.65 -0.04,-3.28 -0.118,-4.89l-19.598,0c-3.152,0 -5.711,2.657 -5.711,5.929c0,3.272 2.559,5.929 5.711,5.929l19.329,0Zm-1.996,-28.254l-7.627,0c-3.152,0 -5.711,2.657 -5.711,5.929c0,3.272 2.559,5.929 5.711,5.929l9.564,0c-0.394,-4.09 -1.045,-8.045 -1.937,-11.859Zm1.338,32.62l-8.965,0c-3.152,0 -5.711,2.657 -5.711,5.929c0,3.272 2.559,5.929 5.711,5.929l5.351,0c1.612,-3.759 2.829,-7.715 3.614,-11.859Z" style="fill:#8b6243;"/><path d="M163.475,86.75l0,16.933c0,3.152 -2.657,5.711 -5.929,5.711c-3.272,0 -5.929,-2.559 -5.929,-5.711l0,-15.447c3.85,-0.784 7.809,-1.123 11.859,-1.486Zm16.225,-0.244l0,26.882c0,3.152 -2.657,5.711 -5.929,5.711c-3.272,0 -5.929,-2.559 -5.929,-5.711l-0,-26.874c1.987,-0.102 3.992,-0.153 6.015,-0.153c1.964,0 3.913,0.048 5.844,0.144Zm16.395,1.741l0,15.436c0,3.152 -2.657,5.711 -5.929,5.711c-3.272,0 -5.929,-2.559 -5.929,-5.711l0,-16.934c4.049,0.363 8.009,0.715 11.859,1.499Z" style="fill:#8b6243;"/></g><g><path d="M173.861,186.222c0,8.798 -3.814,14.16 -9.114,15.825c0,0 -8.733,2.911 -13.7,-4.706" style="fill:none;stroke:#000;stroke-width:2.08px;"/><path d="M173.861,186.222c0,8.798 3.814,14.16 9.114,15.825c0,0 8.733,2.911 13.7,-4.706" style="fill:none;stroke:#000;stroke-width:2.08px;"/></g><path d="M173.861,190.709c-0.684,-0.004 -1.33,-0.321 -1.75,-0.861l-8.875,-11.395c-0.378,-0.486 -0.447,-1.145 -0.177,-1.698c0.27,-0.553 0.832,-0.904 1.448,-0.904l18.708,0c0.616,-0 1.178,0.351 1.448,0.904c0.27,0.553 0.202,1.212 -0.177,1.698l-8.875,11.395c-0.421,0.54 -1.066,0.857 -1.75,0.861Z"/><ellipse cx="133.637" cy="161.907" rx="9.372" ry="13.943"/><ellipse cx="214.084" cy="161.907" rx="9.372" ry="13.943"/><path d="M96.599,114.126c-1.296,-23.363 3.206,-42.999 8.721,-44.232c10.149,-2.269 27.977,19.986 25.145,21.234c-4.994,2.201 -18.035,6.863 -33.749,22.989" style="fill:#8b6243;"/><path d="M251.027,114.126c1.296,-23.363 -3.206,-42.999 -8.721,-44.232c-10.149,-2.269 -28.021,20.091 -25.145,21.234c3.68,1.462 18.035,6.863 33.749,22.989" style="fill:#8b6243;"/><g><path d="M110.682,375.9c-3.801,0 -6.699,-1.081 -8.695,-3.243c-1.995,-2.162 -2.993,-5.262 -2.993,-9.3l0,-26.226c0,-4.038 0.998,-7.139 2.993,-9.3c1.995,-2.162 4.894,-3.243 8.695,-3.243c3.801,0 6.699,1.081 8.695,3.243c1.995,2.162 2.993,5.262 2.993,9.3l0,4.276l-7.412,0l0,-4.775c0,-3.278 -1.354,-4.917 -4.062,-4.917c-2.708,0 -4.062,1.639 -4.062,4.917l0,27.295c0,3.231 1.354,4.846 4.062,4.846c2.708,0 4.062,-1.615 4.062,-4.846l0,-9.764l-3.92,0l0,-7.127l11.331,0l0,16.32c0,4.038 -0.998,7.139 -2.993,9.3c-1.995,2.162 -4.894,3.243 -8.695,3.243Z" style="fill:#fff;fill-rule:nonzero;"/><rect x="127.43" y="325.3" width="7.839" height="49.887" style="fill:#fff;fill-rule:nonzero;"/><path d="M141.113,325.3l9.835,0l7.626,29.861l0.143,0l0,-29.861l6.984,0l0,49.887l-8.053,0l-9.407,-36.417l-0.143,0l0,36.417l-6.984,0l0,-49.887Z" style="fill:#fff;fill-rule:nonzero;"/><path d="M182.662,375.9c-3.801,0 -6.699,-1.081 -8.695,-3.243c-1.995,-2.162 -2.993,-5.262 -2.993,-9.3l0,-26.226c0,-4.038 0.998,-7.139 2.993,-9.3c1.995,-2.162 4.894,-3.243 8.695,-3.243c3.801,0 6.699,1.081 8.695,3.243c1.995,2.162 2.993,5.262 2.993,9.3l0,4.276l-7.412,0l0,-4.775c0,-3.278 -1.354,-4.917 -4.062,-4.917c-2.708,0 -4.062,1.639 -4.062,4.917l0,27.295c0,3.231 1.354,4.846 4.062,4.846c2.708,0 4.062,-1.615 4.062,-4.846l0,-9.764l-3.92,0l0,-7.127l11.331,0l0,16.32c0,4.038 -0.998,7.139 -2.993,9.3c-1.995,2.162 -4.894,3.243 -8.695,3.243Z" style="fill:#fff;fill-rule:nonzero;"/><path d="M199.41,325.3l21.38,0l0,7.127l-13.541,0l0,13.184l10.761,0l0,7.127l-10.761,0l0,15.322l13.541,0l0,7.127l-21.38,0l0,-49.887Z" style="fill:#fff;fill-rule:nonzero;"/><path d="M225.28,325.3l11.617,0c4.038,0 6.984,0.938 8.837,2.815c1.853,1.877 2.779,4.763 2.779,8.659l0,3.064c0,5.179 -1.71,8.457 -5.131,9.835l0,0.143c1.9,0.57 3.243,1.734 4.027,3.492c0.784,1.758 1.176,4.11 1.176,7.055l0,8.766c0,1.425 0.048,2.577 0.143,3.456c0.095,0.879 0.333,1.746 0.713,2.601l-7.982,0c-0.285,-0.808 -0.475,-1.568 -0.57,-2.281c-0.095,-0.713 -0.143,-1.995 -0.143,-3.848l0,-9.122c0,-2.281 -0.368,-3.872 -1.105,-4.775c-0.736,-0.903 -2.007,-1.354 -3.813,-1.354l-2.708,0l0,21.38l-7.839,0l0,-49.887Zm10.69,21.38c1.568,0 2.744,-0.404 3.528,-1.212c0.784,-0.808 1.176,-2.162 1.176,-4.062l0,-3.848c0,-1.805 -0.321,-3.112 -0.962,-3.92c-0.641,-0.808 -1.651,-1.212 -3.029,-1.212l-3.563,0l0,14.253l2.851,0Z" style="fill:#fff;fill-rule:nonzero;"/></g></g></g><path d="M0,311.664l0,-5.195l346.164,0l0,5.195l-346.164,0Zm346.164,77.159l0,5.195l-346.164,0l0,-5.195l346.164,0Z" style="fill-opacity:0.15;"/></g></svg>