<?xml version="1.0" encoding="UTF-8" standalone="no"?><!DOCTYPE svg PUBLIC "-//W3C//DTD SVG 1.1//EN" "http://www.w3.org/Graphics/SVG/1.1/DTD/svg11.dtd"><svg width="100%" height="100%" viewBox="0 0 347 425" version="1.1" xmlns="http://www.w3.org/2000/svg" xmlns:xlink="http://www.w3.org/1999/xlink" xml:space="preserve" xmlns:serif="http://www.serif.com/" style="fill-rule:evenodd;clip-rule:evenodd;stroke-linecap:round;stroke-linejoin:round;stroke-miterlimit:1.5;"><g><path d="M346.164,13.028l0,398.562c0,7.19 -5.838,13.028 -13.028,13.028l-320.108,0c-7.19,0 -13.028,-5.838 -13.028,-13.028l0,-398.562c0,-7.19 5.838,-13.028 13.028,-13.028l320.108,0c7.19,0 13.028,5.838 13.028,13.028Z" style="fill:#ffc900;"/><path d="M328.465,24.531l0,375.556c0,4.046 -3.285,7.331 -7.331,7.331l-296.103,0c-4.046,0 -7.331,-3.285 -7.331,-7.331l0,-375.556c0,-4.046 3.285,-7.331 7.331,-7.331l296.103,0c4.046,0 7.331,3.285 7.331,7.331Z" style="fill:#fff7d8;"/><rect x="0" y="311.664" width="346.164" height="77.159" style="fill:#00b6ff;"/><g><rect x="29.726" y="48.718" width="286.712" height="327.182" style="fill:#fff;fill-opacity:0;"/><g><path d="M85.117,311.664c2.059,-67.022 41.034,-120.538 88.743,-120.538c47.709,0 86.684,53.517 88.743,120.538l-177.487,0Z" style="fill:#e9a156;stroke:#000;stroke-width:2.08px;"/><path d="M104.378,238.7c16.281,-28.986 41.365,-47.574 69.482,-47.574c28.117,0 53.201,18.588 69.482,47.574c-18.085,11.439 -42.557,17.677 -69.482,17.677c-26.925,0 -51.398,-6.238 -69.482,-17.677Z" style="fill-opacity:0.15;"/><path d="M173.861,244.629c-55.617,0 -100.772,-26.617 -100.772,-70.707c0,-16.933 4.185,-31.81 11.577,-44.314c-0.699,-10.306 -6.036,-54.011 11.846,-75.043c12.967,-15.251 45.876,27.579 49.737,33.21c8.776,-1.924 18.039,-2.915 27.611,-2.915c9.573,0 18.835,0.991 27.611,2.915c3.862,-5.632 36.77,-48.462 49.737,-33.21c17.882,21.032 12.545,64.737 11.846,75.043c7.392,12.504 11.577,27.382 11.577,44.314c-0,44.089 -45.154,70.707 -100.772,70.707Z" style="fill:#e9a156;stroke:#000;stroke-width:2.08px;"/><g><path d="M173.861,186.222c0,8.798 -3.814,14.16 -9.114,15.825c0,0 -8.733,2.911 -13.7,-4.706" style="fill:none;stroke:#000;stroke-width:2.08px;"/><path d="M173.861,186.222c0,8.798 3.814,14.16 9.114,15.825c0,0 8.733,2.911 13.7,-4.706" style="fill:none;stroke:#000;stroke-width:2.08px;"/></g><path d="M173.861,190.709c-0.684,-0.004 -1.33,-0.321 -1.75,-0.861l-8.875,-11.395c-0.378,-0.486 -0.447,-1.145 -0.177,-1.698c0.27,-0.553 0.832,-0.904 1.448,-0.904l18.708,0c0.616,-0 1.178,0.351 1.448,0.904c0.27,0.553 0.202,1.212 -0.177,1.698l-8.875,11.395c-0.421,0.54 -1.066,0.857 -1.75,0.861Z"/><ellipse cx="133.637" cy="161.907" rx="9.372" ry="13.943"/><ellipse cx="214.084" cy="161.907" rx="9.372" ry="13.943"/><path d="M96.599,114.126c-1.296,-23.363 3.206,-42.999 8.721,-44.232c10.149,-2.269 27.977,19.986 25.145,21.234c-4.994,2.201 -18.035,6.863 -33.749,22.989" style="fill:#cc7c2a;"/><path d="M251.027,114.126c1.296,-23.363 -3.206,-42.999 -8.721,-44.232c-10.149,-2.269 -28.021,20.091 -25.145,21.234c3.68,1.462 18.035,6.863 33.749,22.989" style="fill:#cc7c2a;"/><g><path d="M75,162.905c-3.605,0.922 -8.256,1.269 -11.943,-1.81c-0.049,3.765 2.369,7.462 4.792,10.171c-1.044,0.393 -5.554,2.087 -13.898,-1.167c1.494,10.994 8.634,19.426 19.378,21.701c-1.84,0.852 -7.808,3.261 -11.257,3.261c5.006,7.283 11.495,11.335 22.055,10.859" style="fill:#e9a156;stroke:#000;stroke-width:2.08px;"/><path d="M272.721,162.905c3.605,0.922 8.256,1.269 11.943,-1.81c0.049,3.765 -2.369,7.462 -4.792,10.171c1.044,0.393 5.554,2.087 13.898,-1.167c-1.494,10.994 -8.634,19.426 -19.378,21.701c1.84,0.852 7.808,3.261 11.257,3.261c-5.006,7.283 -11.495,11.335 -22.055,10.859" style="fill:#e9a156;stroke:#000;stroke-width:2.08px;"/><path d="M152.471,87.901c0.332,-3.706 0.012,-7.86 -3.618,-11.005c3.708,-0.652 7.746,1.142 10.807,3.101c0.22,-1.094 1.171,-5.817 -3.379,-13.531c11.092,-0.287 20.559,5.41 24.526,15.65c0.546,-1.953 1.968,-8.23 1.415,-11.635c7.991,3.775 12.373,7.149 13.595,17.649" style="fill:#e9a156;stroke:#000;stroke-width:2.08px;"/></g><g><path d="M119.021,375.9c-3.801,0 -6.675,-1.081 -8.623,-3.243c-1.948,-2.162 -2.922,-5.262 -2.922,-9.3l0,-2.851l7.412,0l0,3.421c0,3.231 1.354,4.846 4.062,4.846c1.33,0 2.34,-0.392 3.029,-1.176c0.689,-0.784 1.033,-2.055 1.033,-3.813c0,-2.091 -0.475,-3.932 -1.425,-5.523c-0.95,-1.592 -2.708,-3.504 -5.274,-5.737c-3.231,-2.851 -5.488,-5.428 -6.77,-7.732c-1.283,-2.304 -1.924,-4.906 -1.924,-7.804c0,-3.943 0.998,-6.996 2.993,-9.158c1.995,-2.162 4.894,-3.243 8.695,-3.243c3.753,0 6.592,1.081 8.516,3.243c1.924,2.162 2.886,5.262 2.886,9.3l0,2.067l-7.412,0l0,-2.566c0,-1.71 -0.333,-2.958 -0.998,-3.742c-0.665,-0.784 -1.639,-1.176 -2.922,-1.176c-2.613,0 -3.92,1.592 -3.92,4.775c0,1.805 0.487,3.492 1.461,5.06c0.974,1.568 2.744,3.468 5.309,5.701c3.278,2.851 5.535,5.44 6.77,7.768c1.235,2.328 1.853,5.06 1.853,8.196c0,4.086 -1.01,7.222 -3.029,9.407c-2.019,2.186 -4.953,3.278 -8.801,3.278Z" style="fill:#fff;fill-rule:nonzero;"/><rect x="135.341" y="325.3" width="7.839" height="49.887" style="fill:#fff;fill-rule:nonzero;"/><path d="M149.024,325.3l11.189,0l4.989,35.705l0.143,0l4.989,-35.705l11.189,0l0,49.887l-7.412,0l0,-37.772l-0.143,0l-5.701,37.772l-6.557,0l-5.701,-37.772l-0.143,0l0,37.772l-6.842,0l0,-49.887Z" style="fill:#fff;fill-rule:nonzero;"/><path d="M187.366,325.3l11.83,0c4.038,0 6.984,0.938 8.837,2.815c1.853,1.877 2.779,4.763 2.779,8.659l0,1.995c0,2.566 -0.416,4.656 -1.247,6.272c-0.831,1.615 -2.102,2.779 -3.813,3.492l0,0.143c3.896,1.33 5.844,4.799 5.844,10.405l0,4.276c0,3.848 -1.01,6.782 -3.029,8.801c-2.019,2.019 -4.977,3.029 -8.873,3.029l-12.329,0l0,-49.887Zm10.904,20.311c1.568,0 2.744,-0.404 3.528,-1.212c0.784,-0.808 1.176,-2.162 1.176,-4.062l0,-2.779c0,-1.805 -0.321,-3.112 -0.962,-3.92c-0.641,-0.808 -1.651,-1.212 -3.029,-1.212l-3.777,0l0,13.184l3.064,0Zm1.425,22.449c1.378,0 2.399,-0.368 3.064,-1.105c0.665,-0.736 0.998,-2.007 0.998,-3.813l0,-4.347c0,-2.281 -0.392,-3.86 -1.176,-4.739c-0.784,-0.879 -2.079,-1.318 -3.884,-1.318l-3.492,0l0,15.322l4.49,0Z" style="fill:#fff;fill-rule:nonzero;"/><path d="M222.215,325.3l10.619,0l8.124,49.887l-7.839,0l-1.425,-9.906l0,0.143l-8.908,0l-1.425,9.764l-7.269,0l8.124,-49.887Zm8.552,33.353l-3.492,-24.658l-0.143,0l-3.421,24.658l7.055,0Z" style="fill:#fff;fill-rule:nonzero;"/></g></g></g><path d="M0,311.664l0,-5.195l346.164,0l0,5.195l-346.164,0Zm346.164,77.159l0,5.195l-346.164,0l0,-5.195l346.164,0Z" style="fill-opacity:0.15;"/></g></svg>