<?xml version="1.0" encoding="UTF-8" standalone="no"?><!DOCTYPE svg PUBLIC "-//W3C//DTD SVG 1.1//EN" "http://www.w3.org/Graphics/SVG/1.1/DTD/svg11.dtd"><svg width="100%" height="100%" viewBox="0 0 347 425" version="1.1" xmlns="http://www.w3.org/2000/svg" xmlns:xlink="http://www.w3.org/1999/xlink" xml:space="preserve" xmlns:serif="http://www.serif.com/" style="fill-rule:evenodd;clip-rule:evenodd;stroke-linecap:round;stroke-linejoin:round;stroke-miterlimit:1.5;"><g><path d="M346.164,13.028l0,398.562c0,7.19 -5.838,13.028 -13.028,13.028l-320.108,0c-7.19,0 -13.028,-5.838 -13.028,-13.028l0,-398.562c0,-7.19 5.838,-13.028 13.028,-13.028l320.108,0c7.19,0 13.028,5.838 13.028,13.028Z" style="fill:#ffc900;"/><path d="M328.465,24.531l0,375.556c0,4.046 -3.285,7.331 -7.331,7.331l-296.103,0c-4.046,0 -7.331,-3.285 -7.331,-7.331l0,-375.556c0,-4.046 3.285,-7.331 7.331,-7.331l296.103,0c4.046,0 7.331,3.285 7.331,7.331Z" style="fill:#fff7d8;"/><rect x="0" y="311.664" width="346.164" height="77.159" style="fill:#00b6ff;"/><g><rect x="29.726" y="48.718" width="286.712" height="327.182" style="fill:#fff;fill-opacity:0;"/><g><g><path d="M173.082,186.222c0,8.798 -3.814,14.16 -9.114,15.825c0,0 -8.733,2.911 -13.7,-4.706" style="fill:none;stroke:#000;stroke-width:2.08px;"/><path d="M173.082,186.222c0,8.798 3.814,14.16 9.114,15.825c0,0 8.733,2.911 13.7,-4.706" style="fill:none;stroke:#000;stroke-width:2.08px;"/></g><path d="M173.082,190.709c-0.684,-0.004 -1.33,-0.321 -1.75,-0.861l-8.875,-11.395c-0.378,-0.486 -0.447,-1.145 -0.177,-1.698c0.27,-0.553 0.832,-0.904 1.448,-0.904l18.708,0c0.616,-0 1.178,0.351 1.448,0.904c0.27,0.553 0.202,1.212 -0.177,1.698l-8.875,11.395c-0.421,0.54 -1.066,0.857 -1.75,0.861Z"/><ellipse cx="132.859" cy="161.907" rx="9.372" ry="13.943"/><ellipse cx="213.305" cy="161.907" rx="9.372" ry="13.943"/><path d="M95.82,114.126c-1.296,-23.363 3.206,-42.999 8.721,-44.232c10.149,-2.269 27.977,19.986 25.145,21.234c-4.994,2.201 -18.035,6.863 -33.749,22.989" style="fill:#716c67;"/><path d="M250.248,114.126c1.296,-23.363 -3.206,-42.999 -8.721,-44.232c-10.149,-2.269 -28.021,20.091 -25.145,21.234c3.68,1.462 18.035,6.863 33.749,22.989" style="fill:#716c67;"/><path d="M84.339,311.664c2.059,-67.022 41.034,-120.538 88.743,-120.538c47.709,0 86.684,53.517 88.743,120.538l-177.487,0Z" style="fill:#a19d92;stroke:#000;stroke-width:2.08px;"/><path d="M103.6,238.7c16.281,-28.986 41.365,-47.574 69.482,-47.574c28.117,0 53.201,18.588 69.482,47.574c-18.085,11.439 -42.557,17.677 -69.482,17.677c-26.925,0 -51.398,-6.238 -69.482,-17.677Z" style="fill-opacity:0.15;"/><path d="M173.082,244.629c-55.617,0 -100.772,-26.617 -100.772,-70.707c0,-16.933 4.185,-31.81 11.577,-44.314c-0.699,-10.306 -6.036,-54.011 11.846,-75.043c12.967,-15.251 45.876,27.579 49.737,33.21c8.776,-1.924 18.039,-2.915 27.611,-2.915c9.573,0 18.835,0.991 27.611,2.915c3.862,-5.632 36.77,-48.462 49.737,-33.21c17.882,21.032 12.545,64.737 11.846,75.043c7.392,12.504 11.577,27.382 11.577,44.314c-0,44.089 -45.154,70.707 -100.772,70.707Z" style="fill:#a19d92;stroke:#000;stroke-width:2.08px;"/><g><g><path d="M91.12,274.545c0.965,-3.808 2.056,-7.532 3.265,-11.16c16.469,12.212 26.5,8.207 26.021,15.931c-0.393,6.332 -15.316,3.934 -29.286,-4.771Zm11.98,-31.898c19.616,15.836 31.291,9.982 31.064,18.383c-0.198,7.318 -20.135,3.694 -35.909,-7.98c1.496,-3.585 3.114,-7.057 4.846,-10.402Z" style="fill:#716c67;"/><path d="M255.035,274.545c-0.965,-3.808 -2.056,-7.532 -3.265,-11.16c-16.469,12.212 -26.5,8.207 -26.021,15.931c0.393,6.332 15.316,3.934 29.286,-4.771Zm-11.98,-31.898c-19.616,15.836 -31.291,9.982 -31.064,18.383c0.198,7.318 20.135,3.694 35.909,-7.98c-1.496,-3.585 -3.114,-7.057 -4.846,-10.402Z" style="fill:#716c67;"/></g><path d="M74.187,180.856c-0.256,-2.271 -0.387,-4.595 -0.387,-6.969c0,-1.65 0.04,-3.28 0.118,-4.89l19.598,0c3.152,0 5.711,2.657 5.711,5.929c0,3.272 -2.559,5.929 -5.711,5.929l-19.329,0Zm1.996,-28.254l7.627,0c3.152,0 5.711,2.657 5.711,5.929c0,3.272 -2.559,5.929 -5.711,5.929l-9.564,0c0.394,-4.09 1.045,-8.045 1.937,-11.859Zm-1.338,32.62l8.965,0c3.152,0 5.711,2.657 5.711,5.929c0,3.272 -2.559,5.929 -5.711,5.929l-5.351,0c-1.612,-3.759 -2.829,-7.715 -3.614,-11.859Z" style="fill:#716c67;"/><path d="M271.977,180.856c0.256,-2.271 0.387,-4.595 0.387,-6.969c0,-1.65 -0.04,-3.28 -0.118,-4.89l-19.598,0c-3.152,0 -5.711,2.657 -5.711,5.929c0,3.272 2.559,5.929 5.711,5.929l19.329,0Zm-1.996,-28.254l-7.627,0c-3.152,0 -5.711,2.657 -5.711,5.929c0,3.272 2.559,5.929 5.711,5.929l9.564,0c-0.394,-4.09 -1.045,-8.045 -1.937,-11.859Zm1.338,32.62l-8.965,0c-3.152,0 -5.711,2.657 -5.711,5.929c0,3.272 2.559,5.929 5.711,5.929l5.351,0c1.612,-3.759 2.829,-7.715 3.614,-11.859Z" style="fill:#716c67;"/><path d="M162.697,86.714l0,16.933c0,3.152 -2.657,5.711 -5.929,5.711c-3.272,0 -5.929,-2.559 -5.929,-5.711l0,-15.447c3.85,-0.784 7.809,-1.123 11.859,-1.486Zm16.225,-0.244l0,26.882c0,3.152 -2.657,5.711 -5.929,5.711c-3.272,0 -5.929,-2.559 -5.929,-5.711l-0,-26.874c1.987,-0.102 3.992,-0.153 6.015,-0.153c1.964,0 3.913,0.048 5.844,0.144Zm16.395,1.741l0,15.436c0,3.152 -2.657,5.711 -5.929,5.711c-3.272,0 -5.929,-2.559 -5.929,-5.711l0,-16.934c4.049,0.363 8.009,0.715 11.859,1.499Z" style="fill:#716c67;"/></g><g><path d="M173.082,186.222c0,8.798 -3.814,14.16 -9.114,15.825c0,0 -8.733,2.911 -13.7,-4.706" style="fill:none;stroke:#000;stroke-width:2.08px;"/><path d="M173.082,186.222c0,8.798 3.814,14.16 9.114,15.825c0,0 8.733,2.911 13.7,-4.706" style="fill:none;stroke:#000;stroke-width:2.08px;"/></g><path d="M173.082,190.709c-0.684,-0.004 -1.33,-0.321 -1.75,-0.861l-8.875,-11.395c-0.378,-0.486 -0.447,-1.145 -0.177,-1.698c0.27,-0.553 0.832,-0.904 1.448,-0.904l18.708,0c0.616,-0 1.178,0.351 1.448,0.904c0.27,0.553 0.202,1.212 -0.177,1.698l-8.875,11.395c-0.421,0.54 -1.066,0.857 -1.75,0.861Z"/><ellipse cx="132.859" cy="161.907" rx="9.372" ry="13.943"/><ellipse cx="213.305" cy="161.907" rx="9.372" ry="13.943"/><path d="M95.82,114.126c-1.296,-23.363 3.206,-42.999 8.721,-44.232c10.149,-2.269 27.977,19.986 25.145,21.234c-4.994,2.201 -18.035,6.863 -33.749,22.989" style="fill:#716c67;"/><path d="M250.248,114.126c1.296,-23.363 -3.206,-42.999 -8.721,-44.232c-10.149,-2.269 -28.021,20.091 -25.145,21.234c3.68,1.462 18.035,6.863 33.749,22.989" style="fill:#716c67;"/><g><path d="M73.899,162.785c-3.605,0.922 -8.256,1.269 -11.943,-1.81c-0.049,3.765 2.369,7.462 4.792,10.171c-1.044,0.393 -5.554,2.087 -13.898,-1.167c1.494,10.994 8.634,19.426 19.378,21.701c-1.84,0.852 -7.808,3.261 -11.257,3.261c5.006,7.283 11.495,11.335 22.055,10.859" style="fill:#a19d92;stroke:#000;stroke-width:2.08px;"/><path d="M271.62,162.785c3.605,0.922 8.256,1.269 11.943,-1.81c0.049,3.765 -2.369,7.462 -4.792,10.171c1.044,0.393 5.554,2.087 13.898,-1.167c-1.494,10.994 -8.634,19.426 -19.378,21.701c1.84,0.852 7.808,3.261 11.257,3.261c-5.006,7.283 -11.495,11.335 -22.055,10.859" style="fill:#a19d92;stroke:#000;stroke-width:2.08px;"/><path d="M151.369,87.781c0.332,-3.706 0.012,-7.86 -3.618,-11.005c3.708,-0.652 7.746,1.142 10.807,3.101c0.22,-1.094 1.171,-5.817 -3.379,-13.531c11.092,-0.287 20.559,5.41 24.526,15.65c0.546,-1.953 1.968,-8.23 1.415,-11.635c7.991,3.775 12.373,7.149 13.595,17.649" style="fill:#716c67;stroke:#000;stroke-width:2.08px;"/></g><g><g><path d="M98.181,188.692c-21.145,0 -51.387,5.462 -63.907,15.446" style="fill:none;stroke:#000;stroke-width:2.08px;"/><path d="M98.181,181.875c-20.893,-3.255 -51.616,-2.512 -65.523,5.426" style="fill:none;stroke:#000;stroke-width:2.08px;"/><path d="M98.181,195.287c-20.762,4.004 -49.423,15.095 -59.825,27.269" style="fill:none;stroke:#000;stroke-width:2.08px;"/></g><g><path d="M247.983,188.692c21.145,0 51.387,5.462 63.907,15.446" style="fill:none;stroke:#000;stroke-width:2.08px;"/><path d="M247.983,181.875c20.893,-3.255 51.616,-2.512 65.523,5.426" style="fill:none;stroke:#000;stroke-width:2.08px;"/><path d="M247.983,195.287c20.762,4.004 49.423,15.095 59.825,27.269" style="fill:none;stroke:#000;stroke-width:2.08px;"/></g></g><g><path d="M127.003,332.427l-8.196,0l0,-7.127l24.231,0l0,7.127l-8.196,0l0,42.76l-7.839,0l0,-42.76Z" style="fill:#fff;fill-rule:nonzero;"/><path d="M146.815,325.3l7.839,0l0,20.311l8.41,0l0,-20.311l7.839,0l0,49.887l-7.839,0l0,-22.449l-8.41,0l0,22.449l-7.839,0l0,-49.887Z" style="fill:#fff;fill-rule:nonzero;"/><path d="M176.748,325.3l21.38,0l0,7.127l-13.541,0l0,13.184l10.761,0l0,7.127l-10.761,0l0,15.322l13.541,0l0,7.127l-21.38,0l0,-49.887Z" style="fill:#fff;fill-rule:nonzero;"/><path d="M213.949,375.9c-3.848,0 -6.794,-1.093 -8.837,-3.278c-2.043,-2.186 -3.064,-5.274 -3.064,-9.265l0,-26.226c0,-3.991 1.021,-7.079 3.064,-9.265c2.043,-2.186 4.989,-3.278 8.837,-3.278c3.848,0 6.794,1.093 8.837,3.278c2.043,2.186 3.064,5.274 3.064,9.265l0,26.226c0,3.991 -1.021,7.079 -3.064,9.265c-2.043,2.186 -4.989,3.278 -8.837,3.278Zm0,-7.127c2.708,0 4.062,-1.639 4.062,-4.917l0,-27.224c0,-3.278 -1.354,-4.917 -4.062,-4.917c-2.708,0 -4.062,1.639 -4.062,4.917l0,27.224c0,3.278 1.354,4.917 4.062,4.917Z" style="fill:#fff;fill-rule:nonzero;"/></g></g></g><path d="M0,311.664l0,-5.195l346.164,0l0,5.195l-346.164,0Zm346.164,77.159l0,5.195l-346.164,0l0,-5.195l346.164,0Z" style="fill:#00b6ff;fill-opacity:0.15;"/></g></svg>